<svg xmlns="http://www.w3.org/2000/svg" viewBox="0 0 512 512">
  <defs>
    <linearGradient id="grad" x1="0%" y1="0%" x2="100%" y2="100%">
      <stop offset="0%" style="stop-color:#10b981;stop-opacity:1" />
      <stop offset="100%" style="stop-color:#047857;stop-opacity:1" />
    </linearGradient>
  </defs>
  <rect width="512" height="512" rx="128" fill="url(#grad)" />
  <path d="M352 288h-68.2c-11.3 0-21.7-6.2-27.2-16.1l-25.9-46.7c-5.4-9.9-15.8-16.1-27.2-16.1h-23l-34.7-62.5c-5.4-9.8-15.8-15.9-27.1-15.9h-87.3c-17.7 0-32 14.3-32 32s14.3 32 32 32h72.6l23 41.5c5.4 9.8 15.8 15.9 27.1 15.9h23l34.7 62.5c5.4 9.8 15.8 15.9 27.1 15.9h87.3c17.7 0 32-14.3 32-32s-14.3-32-32-32z" fill="#ffffff" opacity="0.2" transform="translate(10, 10)" />
  <!-- Heartbeat / Abstract FZ line -->
  <path d="M96 256h64l48-96 64 192 48-96h96" stroke="white" stroke-width="48" stroke-linecap="round" stroke-linejoin="round" fill="none"/>
</svg>
